<svg width="113" height="113" viewBox="0 0 113 113" fill="none" xmlns="http://www.w3.org/2000/svg">
<circle cx="56.5" cy="56.5" r="56.5" fill="#EBEBEB"/>
<mask id="mask0_1153_3015" style="mask-type:alpha" maskUnits="userSpaceOnUse" x="0" y="0" width="113" height="113">
<circle cx="56.5" cy="56.5" r="54" fill="#D9D9D9" stroke="#E0E0E0" stroke-width="5"/>
</mask>
<g mask="url(#mask0_1153_3015)">
<path d="M97.725 89.7331C92.4718 83.9299 86.097 79.2986 79.0019 76.131C71.9069 72.9634 64.2454 71.3281 56.5 71.3281C48.7546 71.3281 41.0931 72.9634 33.9981 76.131C26.903 79.2986 20.5282 83.9299 15.275 89.7331C14.464 90.6475 14.0103 91.8336 14 93.0664V113.066C14.0172 114.381 14.5414 115.635 15.4592 116.559C16.377 117.482 17.6145 118 18.9038 117.999H94.0962C95.3967 117.999 96.644 117.473 97.5637 116.535C98.4833 115.597 99 114.326 99 112.999V92.9997C98.9739 91.79 98.5213 90.6303 97.725 89.7331Z" fill="#FD9B36"/>
<path d="M56.5018 64.6661C69.1406 64.6661 79.3864 54.2196 79.3864 41.3331C79.3864 28.4466 69.1406 18 56.5018 18C43.863 18 33.6172 28.4466 33.6172 41.3331C33.6172 54.2196 43.863 64.6661 56.5018 64.6661Z" fill="#FD9B36"/>
</g>
</svg>
