<svg width="60" height="60" viewBox="0 0 60 60" fill="none" xmlns="http://www.w3.org/2000/svg">
<path d="M9.48821 22.1531C9.48821 22.1531 6.91946 23.7703 6.62414 25.3828C6.32883 27 6.91946 28.9078 7.72571 30.1546C8.53196 31.4015 9.48821 32.4328 10.6648 32.8734C11.8413 33.314 12.8679 33.239 12.8679 33.239C12.8679 33.239 15.5866 36.3234 20.4288 40.5093C25.271 44.6953 31.4445 49.6875 38.4195 53.5781C45.3945 57.4687 47.8929 58.425 49.8007 58.425C51.7085 58.425 51.6382 55.5609 51.4179 54.6796C51.1976 53.7984 38.9351 40.1437 38.9351 40.1437L9.48821 22.1531Z" fill="#FF8E00"/>
<path d="M14.6296 29.2781L12.7921 27.2953C12.7921 27.2953 10.8842 23.6953 9.12174 23.6953C7.35924 23.6953 6.62331 25.3828 6.62331 25.3828C6.62331 25.3828 6.403 23.5453 8.60612 20.025C10.8092 16.5047 13.5983 13.711 16.0967 11.9485C18.5952 10.186 21.6749 8.12815 23.7327 6.95627C25.7905 5.7844 30.2671 4.31252 32.8405 3.43127C35.4092 2.55002 40.9921 1.44846 43.5608 1.96408C46.1296 2.47971 47.2311 4.24221 47.2311 6.07502C47.2311 7.90783 46.7905 9.1594 46.4249 9.52502C46.0592 9.89065 43.6358 11.9485 43.6358 11.9485L14.6296 29.2781Z" fill="#F5B03E"/>
<path d="M19.7816 21.5391L15.2301 24.4782L13.3223 28.2235C13.3223 28.2235 13.6879 29.4704 14.2785 30.1313C14.8645 30.7922 19.7816 35.5032 23.302 38.5126C26.0488 40.861 31.9035 45.8438 31.9035 45.8438C31.9035 45.8438 32.1426 48.3469 32.4191 50.1047C32.6395 51.5016 32.6535 53.8313 34.1254 53.7657C35.9816 53.6813 34.9129 49.9219 36.3848 49.9594C39.3238 50.0344 36.4082 57.9844 39.5676 57.9422C42.0848 57.9094 40.4863 53.5641 41.7473 52.8235C42.4316 52.4204 43.791 54.1313 46.0082 55.1016C48.7457 56.2969 50.4145 57.2016 51.2957 56.7891C53.1566 55.9172 49.2332 35.5875 48.7926 32.1375C48.352 28.6875 46.1582 10.9688 46.0082 10.3829C45.8582 9.79692 42.8488 9.72192 42.8488 9.72192L38.2223 11.3391L31.6129 12.2204L23.8316 16.8469L19.7816 21.5391Z" fill="#FFCC8A"/>
<path d="M18.6332 20.8031C17.1895 21.6188 15.3285 22.0735 13.7582 24.661C12.4504 26.8172 12.1035 29.025 13.0363 29.1938C13.9691 29.3625 14.677 26.1094 15.9191 24.8719C17.9113 22.8797 19.5238 22.6688 20.6676 21.6094C21.8113 20.55 23.0629 17.6719 27.8301 15.1266C33.3848 12.1594 36.7035 12.9422 38.002 12.4547C39.6988 11.8172 40.1582 10.7766 42.2816 10.336C44.5269 9.8719 46.0879 10.7672 46.0879 10.7672C46.0879 10.7672 46.5988 9.58127 45.9191 9.02815C45.2394 8.47502 43.9879 8.04377 41.8973 8.47034C39.6098 8.9344 37.9129 10.4625 37.4488 10.5047C36.9848 10.5469 32.2363 10.2938 26.5973 13.5141C20.9582 16.7344 19.9035 20.0813 18.6332 20.8031Z" fill="#CB6C22"/>
<path d="M25.1165 25.9313L17.5321 27.586C17.5321 27.586 17.4149 29.025 17.4899 29.4516C17.743 30.8907 19.6508 33.1829 20.7946 33.5625C21.9383 33.9422 24.268 33.9844 25.0321 33.6469C25.7962 33.3094 28.0837 31.6547 28.379 30.7641C28.6743 29.8735 28.5946 26.1469 28.004 25.5516C27.4134 24.961 25.1165 25.9313 25.1165 25.9313Z" fill="#DB0D27"/>
<path d="M19.776 23.5594C18.9651 24.1875 17.4041 26.3157 17.5307 27.8391C17.6573 29.3672 20.2869 32.0344 21.0041 32.2875C21.7213 32.5407 24.0557 32.5829 24.651 32.4141C25.2463 32.2454 27.5338 30.5485 27.8713 29.9579C28.2088 29.3625 28.5088 26.0579 27.9557 25.4672C27.4026 24.8766 25.7526 23.1375 24.4401 22.7532C23.1229 22.3735 20.5401 22.9641 19.776 23.5594Z" fill="#ED6D30"/>
<path d="M39.1879 30.6796C39.1879 30.6796 32.4754 30.1968 32.391 30.6187C32.3066 31.0406 32.152 32.6718 32.5785 33.9843C32.8785 34.9171 33.5957 36.5296 35.7988 37.4578C38.002 38.3859 40.1207 37.3734 40.6738 36.9468C41.7098 36.15 42.3707 35.1656 42.5395 34.575C42.7082 33.9843 39.1879 30.6796 39.1879 30.6796Z" fill="#DB0D27"/>
<path d="M35.9249 27.1594C34.8889 27.5344 32.4093 29.0672 32.3624 30.7641C32.3202 32.461 33.5483 34.5376 34.1858 35.0016C34.8233 35.4657 36.9421 36.6985 38.5077 36.6141C40.078 36.5297 42.2389 35.2594 42.5343 34.5797C42.8296 33.9001 42.9561 31.9079 42.8296 30.8907C42.703 29.8735 40.4999 27.586 39.3983 27.2438C38.2968 26.9063 36.8577 26.8219 35.9249 27.1594Z" fill="#ED6D30"/>
<path d="M35.6726 43.0125C35.6726 43.0125 29.5273 41.3156 29.443 41.4422C29.3586 41.5687 28.5101 42.6281 28.7211 43.139C28.932 43.65 31.093 45.3844 31.9836 46.1484C32.8742 46.9125 35.5648 48.4922 35.8836 48.4359C36.6476 48.3094 37.2383 47.0812 37.2383 47.0812L35.6726 43.0125Z" fill="#DB0D27"/>
<path d="M36.2194 40.4251C34.7194 39.3235 32.5303 39.4079 31.3444 39.961C30.1585 40.5141 29.4366 41.2313 29.31 41.7844C29.1835 42.3376 30.1632 43.4016 30.5475 43.6969C30.9272 43.9922 32.0803 44.8641 32.0803 44.8641C32.0803 44.8641 33.7913 46.2047 34.4241 46.6922C35.3053 47.3719 36.4116 47.7563 36.7069 47.7985C37.0022 47.8407 38.3803 46.0594 38.1272 43.6829C37.996 42.4688 37.4803 41.3532 36.2194 40.4251Z" fill="#ED6D30"/>
<path d="M46.9033 37.0359L44.6158 36.9515C44.6158 36.9515 43.683 38.6906 44.3205 40.6406C44.8408 42.2343 45.933 43.1859 47.7518 43.6922C49.5752 44.2031 50.5924 44.0203 50.5924 44.0203L50.6205 42.7406L46.9033 37.0359Z" fill="#DB0D27"/>
<path d="M49.1069 34.1109C49.1069 34.1109 46.2851 33.7781 44.8273 36.3984C43.7116 38.4094 44.4898 40.0875 45.3804 41.0625C46.271 42.0375 47.6257 42.675 48.6429 42.7594C49.6601 42.8438 50.6444 42.7641 50.6444 42.7641C50.6444 42.7641 50.2507 40.1625 49.8663 37.9875C49.6319 36.6844 49.1069 34.1109 49.1069 34.1109Z" fill="#ED6D30"/>
<path d="M40.8837 15.7594C40.8837 15.7594 35.4181 15.9281 35.0759 16.4813C34.7337 17.0344 34.7384 19.4906 34.9072 20.4656C35.0759 21.4406 36.5619 23.8125 39.5291 23.8547C42.4962 23.8969 43.5416 23.1563 44.6947 20.9156C45.8478 18.675 44.6478 16.1672 44.6478 16.1672L40.8837 15.7594Z" fill="#DB0D27"/>
<path d="M40.9268 13.2562C39.7408 13.0265 38.0862 13.5093 37.2799 14.0624C36.4737 14.6156 35.1612 15.7593 35.0768 16.6078C34.9924 17.4562 35.7565 19.9124 36.0518 20.3812C36.3471 20.8453 37.5752 22.1062 37.9596 22.289C38.8502 22.7109 41.3065 22.4999 42.0283 22.2468C42.7502 21.9937 44.7424 20.3812 44.9533 19.5328C45.1643 18.6843 45.4174 17.2453 44.4424 15.5062C43.4674 13.7671 42.0283 13.4718 40.9268 13.2562Z" fill="#ED6D30"/>
<path d="M48.6474 48.8297L43.7677 48.6188C43.7677 48.6188 43.1115 49.936 43.3083 51.0891C43.4677 52.0453 44.2599 53.3485 45.6802 53.8969C46.4865 54.2063 48.5958 54.0047 49.1115 53.6531C50.1521 52.9406 50.4849 51.6469 50.4521 50.9813C50.438 50.6344 48.6474 48.8297 48.6474 48.8297Z" fill="#DB0D27"/>
<path d="M47.5836 46.7578C46.3179 46.5656 44.8601 47.25 44.232 47.9015C43.6039 48.5531 43.4773 49.3687 43.7164 50.3531C44.1523 52.1531 45.3054 52.664 45.8398 52.9406C46.632 53.3484 48.807 53.2687 49.4914 52.7484C50.1711 52.2328 50.6867 51.3515 50.5273 49.9968C50.3633 48.6375 49.7633 47.0859 47.5836 46.7578Z" fill="#ED6D30"/>
<path d="M16.8754 14.5453C16.9176 15.5578 18.6895 15.3844 19.3879 15.3141C19.9458 15.2578 21.3426 15.1406 21.3426 14.2313C21.3426 13.3219 20.1239 13.3266 19.2145 13.3594C18.3379 13.3922 16.8379 13.7438 16.8754 14.5453ZM26.3958 8.58281C26.3958 9.24844 27.127 9.31407 27.5817 9.35157C28.0364 9.38438 28.627 9.21094 28.6645 8.69063C28.6973 8.16563 28.2473 7.85156 27.5817 7.81875C26.8833 7.77656 26.3958 8.02031 26.3958 8.58281ZM30.7551 10.1859C31.4254 10.9125 32.4286 9.94219 32.7801 9.4875C33.127 9.03281 33.1973 8.33438 32.8129 7.9875C32.4286 7.64063 31.6973 8.02031 31.2098 8.475C30.7223 8.92969 30.3379 9.73125 30.7551 10.1859ZM38.3254 6.4875C39.1411 7.41094 40.4864 5.85938 41.0442 5.33438C41.602 4.80938 42.0567 4.07813 41.5317 3.4875C41.0067 2.89688 39.8208 3.73125 39.3708 4.25625C38.9161 4.77657 37.8004 5.89688 38.3254 6.4875ZM12.6192 22.1484C13.4114 22.3359 13.6692 21.3984 13.8051 20.6813C13.9458 19.95 13.9458 19.2516 13.3504 19.1484C12.6754 19.0313 12.3051 19.7063 12.1973 20.3672C12.1083 20.9625 11.8879 21.975 12.6192 22.1484Z" fill="#FCC12B"/>
</svg>
