<svg width="60" height="60" viewBox="0 0 60 60" fill="none" xmlns="http://www.w3.org/2000/svg">
<path d="M34.9065 12.3356C32.476 11.0037 29.6797 10.494 26.9356 10.8826C24.1914 11.2713 21.6466 12.5374 19.6815 14.4919L14.4878 14.6362V19.7044C12.5253 21.6646 11.2536 24.21 10.8646 26.9564C10.4756 29.7028 10.9905 32.5012 12.3315 34.9294C15.8029 41.2321 20.9913 46.4205 27.294 49.8919C32.2815 52.6294 38.4878 51.7481 42.519 47.7356L47.7315 42.5231C49.694 40.5628 50.9657 38.0175 51.3547 35.271C51.7437 32.5246 51.2288 29.7262 49.8878 27.2981C46.4146 20.9904 41.2186 15.8009 34.9065 12.3356Z" fill="#6D4534"/>
<path d="M41.5437 27.8794C39.6875 27.8794 37.9625 28.5919 36.65 29.9044L29.9 36.6544C28.5875 37.9669 27.875 39.6919 27.875 41.5481C27.875 43.4044 28.5875 45.1294 29.9 46.4419C31.2125 47.7544 32.9375 48.4669 34.7937 48.4669C36.65 48.4669 38.375 47.7544 39.6875 46.4419L46.4375 39.6919C47.75 38.3794 48.4625 36.6544 48.4625 34.7981C48.4625 32.9419 47.75 31.2169 46.4375 29.9044C45.125 28.6106 43.3812 27.8794 41.5437 27.8794Z" fill="#F8312F"/>
<path d="M19.0809 5.52937C20.7872 7.47937 20.8059 10.4419 19.0997 12.4106C18.7434 12.8044 18.7809 13.3856 19.1372 13.7606L19.7747 14.3981C19.7432 14.4292 19.712 14.4604 19.6809 14.4919L14.4872 19.7044L14.4047 19.7887L13.7559 19.1419C13.5779 18.9651 13.3391 18.8628 13.0883 18.8558C12.8375 18.8488 12.5935 18.9377 12.4059 19.1044C10.4372 20.8106 7.47466 20.7919 5.52466 19.0856C4.98752 18.6129 4.55298 18.0352 4.24787 17.388C3.94276 16.7408 3.77356 16.0379 3.75072 15.3228C3.72787 14.6076 3.85187 13.8954 4.11506 13.23C4.37824 12.5647 4.77503 11.9604 5.28091 11.4544C6.27466 10.4419 7.58716 9.93562 8.89966 9.91687C9.44341 9.91687 9.89341 9.46687 9.91216 8.90437C9.93091 7.59187 10.4372 6.27937 11.4497 5.26687C11.958 4.76412 12.5636 4.37051 13.2295 4.11014C13.8953 3.84978 14.6074 3.72816 15.3219 3.75274C16.0364 3.77732 16.7384 3.94757 17.3848 4.25308C18.0311 4.55858 18.6083 4.99288 19.0809 5.52937ZM47.4872 40.9669C49.4747 39.2419 52.4559 39.1669 54.4434 40.8919C56.7497 42.9169 56.8434 46.4231 54.7247 48.5231C53.7122 49.5356 52.3997 50.0419 51.0872 50.0606C50.8201 50.0654 50.5654 50.1736 50.3765 50.3625C50.1877 50.5513 50.0795 50.8061 50.0747 51.0731C50.0559 52.4044 49.5497 53.6981 48.5372 54.7106C48.0302 55.2194 47.4238 55.6182 46.7559 55.8822C46.088 56.1462 45.3728 56.2698 44.655 56.2451C43.9372 56.2205 43.2322 56.0482 42.5839 55.739C41.9357 55.4299 41.3581 54.9904 40.8872 54.4481C39.1622 52.4606 39.2372 49.4794 40.9622 47.4919C41.1062 47.3303 41.1827 47.1195 41.1757 46.9031C41.1687 46.6867 41.0789 46.4813 40.9247 46.3294L34.9434 40.3481C34.1747 39.5794 34.1747 38.3231 34.9434 37.5544L37.5497 34.9481C38.3184 34.1794 39.5747 34.1794 40.3434 34.9481L46.3247 40.9294C46.6434 41.2481 47.1497 41.2669 47.4872 40.9669Z" fill="#D3D3D3"/>
</svg>
