<svg width="60" height="60" viewBox="0 0 60 60" fill="none" xmlns="http://www.w3.org/2000/svg">
<path d="M35.6258 3.72657L33.5211 9.04688C33.3477 9.48281 32.7055 9.40781 32.6446 8.93906L31.8852 3.26719C31.8477 2.97188 32.0961 2.71407 32.3914 2.75157L35.2555 3.10313C35.5508 3.14063 35.7336 3.45 35.6258 3.72657ZM41.2133 9.36563L35.7805 11.1516C35.3352 11.2969 34.9836 10.7531 35.3024 10.4063L39.1742 6.19688C39.2215 6.14527 39.2799 6.10519 39.3451 6.07972C39.4103 6.05424 39.4804 6.04406 39.5502 6.04994C39.6199 6.05583 39.6873 6.07763 39.7473 6.11367C39.8073 6.1497 39.8582 6.19902 39.8961 6.25782L41.4571 8.68125C41.6164 8.93438 41.4992 9.27188 41.2133 9.36563ZM28.0883 4.5375L30.6758 9.6375C30.8867 10.0594 30.4039 10.4859 30.0149 10.2234L25.2664 7.03594C25.2084 6.99697 25.1601 6.9452 25.1253 6.88462C25.0904 6.82404 25.0699 6.75627 25.0654 6.68653C25.0609 6.61679 25.0724 6.54694 25.0991 6.48237C25.1259 6.41779 25.1671 6.36021 25.2196 6.31407L27.3805 4.40157C27.6008 4.2 27.9524 4.27032 28.0883 4.5375Z" fill="#FF6F00"/>
<path d="M11.268 18.4172L9.74459 18.3375L7.80397 40.7157C7.42897 44.4657 12.7258 46.4438 17.8305 46.9594L20.6055 19.3547L11.268 18.4172Z" fill="#E0E0E0"/>
<path d="M29.934 20.2969L31.4434 20.5219L28.8934 42.8391C28.5184 46.5891 22.9309 47.475 17.8262 46.9641L20.6012 19.3594L29.934 20.2969Z" fill="#E0E0E0"/>
<path d="M20.8591 16.8234C18.1451 16.5515 15.5763 16.6078 13.6263 16.9781C11.9482 17.2968 10.9169 17.8359 10.856 18.4125C10.7997 18.989 11.7044 19.7203 13.2841 20.3718C15.1216 21.1265 17.6294 21.6937 20.3435 21.9656C23.0576 22.2375 25.6263 22.1812 27.5763 21.8109C29.2544 21.4922 30.2857 20.9531 30.3466 20.3765C30.4029 19.8 29.4982 19.0687 27.9185 18.4172C26.0763 17.6625 23.5685 17.0953 20.8591 16.8234Z" fill="#FAFAFA"/>
<path d="M11.0625 27.0375L9.91406 39.4781C9.92813 40.1859 10.4297 40.9125 11.175 41.3531C12.5063 42.1359 15.1781 43.0406 18.2063 43.3453C21.0984 43.6359 23.6156 43.3078 25.1016 42.8484C26.0438 42.5578 26.85 41.864 27.0281 41.2125L28.4156 28.7859" fill="#FBCC2F"/>
<path d="M28.4222 28.7809C28.5411 27.5986 24.7514 26.2495 19.9577 25.7677C15.1641 25.2858 11.1817 25.8537 11.0628 27.036C10.944 28.2183 14.7337 29.5674 19.5274 30.0492C24.321 30.5311 28.3034 29.9632 28.4222 28.7809Z" fill="#E5A315"/>
<path d="M20.2875 22.5047C14.1 21.8812 9.56718 20.0765 9.74531 18.3047C9.92343 16.5328 14.7234 15.6656 20.9109 16.289C27.0984 16.9125 31.6312 18.7172 31.4531 20.489C31.275 22.2562 26.475 23.1234 20.2875 22.5047ZM20.8594 16.8234C18.1453 16.5515 15.5766 16.6078 13.6266 16.9781C11.9484 17.2969 10.9172 17.8359 10.8562 18.4125C10.8 18.989 11.7047 19.7203 13.2844 20.3719C15.1219 21.1265 17.6297 21.6937 20.3437 21.9656C23.0578 22.2375 25.6266 22.1812 27.5766 21.8109C29.2547 21.4922 30.2859 20.9531 30.3469 20.3765C30.4031 19.8 29.4984 19.0687 27.9187 18.4172C26.0766 17.6625 23.5687 17.0953 20.8594 16.8234Z" fill="#CECFD1"/>
<path d="M22.7782 41.603C22.8012 41.3738 22.634 41.1693 22.4048 41.1462C22.1755 41.1232 21.971 41.2903 21.948 41.5196C21.9249 41.7488 22.0921 41.9534 22.3213 41.9764C22.5506 41.9995 22.7551 41.8323 22.7782 41.603Z" fill="#E5A315"/>
<path d="M23.6816 40.5456C23.6974 40.3885 23.5828 40.2483 23.4257 40.2325C23.2686 40.2167 23.1284 40.3313 23.1126 40.4884C23.0968 40.6456 23.2114 40.7858 23.3685 40.8015C23.5256 40.8173 23.6658 40.7028 23.6816 40.5456Z" fill="#E5A315"/>
<path d="M22.1206 39.8501C22.1485 39.5719 21.9457 39.3237 21.6675 39.2958C21.3893 39.2678 21.1411 39.4707 21.1131 39.7489C21.0852 40.027 21.288 40.2752 21.5662 40.3032C21.8444 40.3312 22.0926 40.1283 22.1206 39.8501Z" fill="#E5A315"/>
<path d="M23.9292 39.5102C23.958 39.2243 23.7495 38.9692 23.4636 38.9405C23.1777 38.9117 22.9226 39.1202 22.8938 39.4061C22.8651 39.692 23.0736 39.9471 23.3595 39.9759C23.6454 40.0046 23.9005 39.7961 23.9292 39.5102Z" fill="#E5A315"/>
<path d="M22.3934 37.1238C22.4164 36.8945 22.2493 36.69 22.02 36.667C21.7908 36.6439 21.5863 36.8111 21.5632 37.0403C21.5402 37.2696 21.7073 37.4741 21.9366 37.4972C22.1658 37.5202 22.3704 37.353 22.3934 37.1238Z" fill="#E5A315"/>
<path d="M23.4165 37.4275C23.437 37.2241 23.2886 37.0425 23.0851 37.022C22.8816 37.0016 22.7001 37.15 22.6796 37.3535C22.6592 37.557 22.8075 37.7385 23.011 37.759C23.2145 37.7794 23.3961 37.631 23.4165 37.4275Z" fill="#E5A315"/>
<path d="M25.2193 35.2095C25.2397 35.006 25.0913 34.8245 24.8878 34.804C24.6843 34.7836 24.5028 34.932 24.4823 35.1355C24.4619 35.3389 24.6103 35.5205 24.8138 35.5409C25.0173 35.5614 25.1988 35.413 25.2193 35.2095Z" fill="#E5A315"/>
<path d="M21.9992 32.6684C22.0251 32.4108 21.8373 32.181 21.5797 32.1551C21.3221 32.1292 21.0923 32.317 21.0664 32.5746C21.0405 32.8322 21.2283 33.062 21.4859 33.0879C21.7435 33.1138 21.9733 32.926 21.9992 32.6684Z" fill="#E5A315"/>
<path d="M24.1073 36.301C24.1389 35.9867 23.9098 35.7064 23.5955 35.6748C23.2813 35.6432 23.0009 35.8724 22.9693 36.1866C22.9377 36.5009 23.1669 36.7812 23.4811 36.8128C23.7954 36.8444 24.0757 36.6153 24.1073 36.301Z" fill="#E5A315"/>
<path d="M22.7811 34.395C22.8122 34.0859 22.5868 33.8101 22.2777 33.7791C21.9686 33.748 21.6928 33.9734 21.6617 34.2825C21.6307 34.5916 21.856 34.8674 22.1652 34.8984C22.4743 34.9295 22.75 34.7041 22.7811 34.395Z" fill="#E5A315"/>
<path d="M24.6121 33.8922C24.6352 33.663 24.468 33.4585 24.2388 33.4354C24.0095 33.4124 23.805 33.5795 23.782 33.8088C23.7589 34.038 23.9261 34.2426 24.1553 34.2656C24.3846 34.2886 24.5891 34.1215 24.6121 33.8922Z" fill="#E5A315"/>
<path d="M9.60429 19.6594C9.60429 19.6594 8.78398 20.4282 6.20585 20.6157C3.99804 20.775 1.5371 21.7782 1.03085 29.011C0.590227 35.3204 1.29804 36.8391 4.85585 38.0672C7.95429 39.136 7.86054 40.0126 7.86054 40.0126L9.5621 39.0516L10.3449 31.2704L11.2777 21.15L9.60429 19.6594ZM8.49804 29.5641C8.23554 32.1844 7.89804 34.2938 5.98554 34.1016C3.95116 33.8954 4.1621 31.7719 4.42929 29.1563C4.69179 26.536 4.90741 24.4125 6.94179 24.6188C8.97148 24.8204 8.76054 26.9438 8.49804 29.5641Z" fill="#E0E0E0"/>
<path d="M26.6664 43.6782C26.4414 44.161 25.7383 45.0376 23.943 45.5344C22.8367 45.8391 21.2336 46.0501 19.9539 45.7922C19.682 45.736 19.7945 45.4782 19.9867 45.4594C21.0836 45.3751 22.157 45.1922 23.4461 44.8172C25.1242 44.3297 26.2914 43.5704 26.4555 43.4813C26.7274 43.3266 26.7039 43.5985 26.6664 43.6782ZM15.3274 24.2813C14.9055 23.8922 14.5867 23.5501 13.9867 23.1891C13.7008 23.0157 13.232 22.9454 12.8055 22.9219L12.0555 31.0501C12.0555 31.1391 12.1117 31.3688 12.3883 31.5235C12.6227 31.6501 13.982 32.1329 15.0133 32.4235C15.2852 32.4844 15.468 32.3719 15.4867 32.236L16.2602 24.8766C15.8899 24.6985 15.5336 24.4735 15.3274 24.2813ZM6.20548 21.6516C5.28673 21.7126 4.65392 21.9985 3.98361 22.6313C3.52892 23.0672 2.87267 24.0516 2.81642 25.0126C2.81642 25.0876 2.81173 25.4954 2.98048 25.4954C3.24298 25.4954 3.34611 25.186 3.37892 25.0501C3.49611 24.6141 4.10079 23.5219 4.46173 23.1797C5.15548 22.5282 6.00861 22.4344 6.36017 22.3547C6.56642 22.3079 7.11017 22.1063 7.09142 21.9188C7.06329 21.6188 6.39767 21.6422 6.20548 21.6516Z" fill="white"/>
<path d="M14.0253 10.8281C13.6784 11.039 13.3503 11.2875 12.9519 11.3672C12.2815 11.4984 11.6159 11.1609 10.9128 11.3625C8.9253 11.9343 7.8753 13.4203 8.39561 15.4031C8.56905 16.0687 8.29249 16.35 8.05811 16.9593C7.4253 18.6422 8.41436 20.9484 10.3034 21.3468C11.4331 21.5859 12.5862 21.1593 13.6878 21.389C14.6159 21.5859 15.0144 22.5047 15.8112 22.9125C16.5659 23.2968 17.4378 23.4656 18.2722 23.5218C19.3972 23.6015 20.9581 22.875 21.905 23.7843C23.3722 25.1953 22.0737 27.6656 23.8644 28.9921C24.5956 29.5359 25.669 29.5312 26.4565 29.1375C27.9659 28.3875 27.8112 26.4984 28.3597 25.1671C28.505 24.8109 28.6831 24.4922 29.0347 24.3C29.3815 24.1078 29.7378 24.2062 30.1128 24.1031C30.6144 23.9625 31.0925 23.7515 31.5003 23.4234C31.969 23.0343 31.744 22.2 32.4706 22.1343C32.6956 22.1109 32.9956 22.0172 33.1784 21.9093C34.1722 21.3047 34.519 19.9172 33.9425 18.9093C33.7315 18.539 33.5534 18.4218 33.544 17.9906C33.5347 17.5968 33.6565 17.2687 33.5487 16.8562C33.2862 15.8437 32.4565 15.1359 31.4862 14.7703C31.3081 14.7 31.1159 14.639 30.9284 14.5875C30.6144 14.4984 30.3519 14.4562 30.1269 14.1984C30.0097 14.0672 29.93 13.8797 29.8597 13.725C29.6487 13.2984 29.344 12.9468 28.9972 12.6234C27.9753 11.6578 26.5222 11.3156 25.1347 11.3625C24.7597 11.3765 24.4175 11.4703 24.0519 11.564C23.1378 11.7984 22.8519 11.1797 22.1815 10.7343C21.3472 10.1812 20.2972 10.064 19.3175 10.1062C18.7409 10.1343 18.2909 10.425 17.7612 10.5843C17.1472 10.7718 16.8331 10.5609 16.2472 10.4578C15.7269 10.3687 15.155 10.4437 14.6394 10.5609C14.4237 10.6078 14.2222 10.7109 14.0253 10.8281Z" fill="#E9E2CF"/>
<mask id="mask0_644_6495" style="mask-type:luminance" maskUnits="userSpaceOnUse" x="7" y="10" width="28" height="20">
<path d="M14.0253 10.8281C13.6784 11.039 13.3503 11.2875 12.9519 11.3672C12.2815 11.4984 11.6159 11.1609 10.9128 11.3625C8.9253 11.9343 7.8753 13.4203 8.39561 15.4031C8.56905 16.0687 8.29249 16.35 8.05811 16.9593C7.4253 18.6422 8.41436 20.9484 10.3034 21.3468C11.4331 21.5859 12.5862 21.1593 13.6878 21.389C14.6159 21.5859 15.0144 22.5047 15.8112 22.9125C16.5659 23.2968 17.4378 23.4656 18.2722 23.5218C19.3972 23.6015 20.9581 22.875 21.905 23.7843C23.3722 25.1953 22.0737 27.6656 23.8644 28.9921C24.5956 29.5359 25.669 29.5312 26.4565 29.1375C27.9659 28.3875 27.8112 26.4984 28.3597 25.1671C28.505 24.8109 28.6831 24.4922 29.0347 24.3C29.3815 24.1078 29.7378 24.2062 30.1128 24.1031C30.6144 23.9625 31.0925 23.7515 31.5003 23.4234C31.969 23.0343 31.744 22.2 32.4706 22.1343C32.6956 22.1109 32.9956 22.0172 33.1784 21.9093C34.1722 21.3047 34.519 19.9172 33.9425 18.9093C33.7315 18.539 33.5534 18.4218 33.544 17.9906C33.5347 17.5968 33.6565 17.2687 33.5487 16.8562C33.2862 15.8437 32.4565 15.1359 31.4862 14.7703C31.3081 14.7 31.1159 14.639 30.9284 14.5875C30.6144 14.4984 30.3519 14.4562 30.1269 14.1984C30.0097 14.0672 29.93 13.8797 29.8597 13.725C29.6487 13.2984 29.344 12.9468 28.9972 12.6234C27.9753 11.6578 26.5222 11.3156 25.1347 11.3625C24.7597 11.3765 24.4175 11.4703 24.0519 11.564C23.1378 11.7984 22.8519 11.1797 22.1815 10.7343C21.3472 10.1812 20.2972 10.064 19.3175 10.1062C18.7409 10.1343 18.2909 10.425 17.7612 10.5843C17.1472 10.7718 16.8331 10.5609 16.2472 10.4578C15.7269 10.3687 15.155 10.4437 14.6394 10.5609C14.4237 10.6078 14.2222 10.7109 14.0253 10.8281Z" fill="white"/>
</mask>
<g mask="url(#mask0_644_6495)">
<path d="M34.0777 17.0625C33.8059 17.8734 33.0887 18.5203 32.2543 18.7031C31.4199 18.8859 30.4965 18.6047 29.9105 17.9812C29.5824 18.3422 28.8418 17.8828 28.598 18.014C28.3543 18.1453 27.7637 19.5515 26.934 19.5422C26.3762 20.0953 25.509 20.3109 24.7543 20.0906C23.9996 19.8703 23.5684 18.4172 23.2168 18.45C22.8652 18.4828 22.6215 18.9562 22.2418 18.9468C22.0543 18.9422 21.8574 18.8906 21.6746 18.9422C21.2996 19.0453 21.1449 19.5047 20.8074 19.6968C20.484 19.8797 20.0762 19.7765 19.7105 19.8609C19.4762 19.9125 19.2699 20.0437 19.0543 20.1468C18.1965 20.5593 17.1559 20.5734 16.2887 20.1797C15.8553 19.9791 15.4704 19.6872 15.1605 19.3239C14.8507 18.9606 14.623 18.5345 14.4934 18.075C13.9121 18.6187 12.5152 18.914 12.1168 18.7547C11.7137 18.5953 11.2309 19.3875 10.673 19.439C10.0824 19.4953 9.47305 19.5515 8.90117 19.3922C8.3293 19.2328 7.79023 18.8062 7.67773 18.2203C7.37773 18.9609 6.95586 19.6547 6.43555 20.264C8.42773 21.4406 10.4199 22.6218 12.4121 23.7984C12.684 23.9578 12.9605 24.1265 13.1621 24.3703C13.6262 24.9375 13.5746 25.7953 14.0199 26.3765C14.498 26.9953 15.3699 27.1031 16.1434 27.1593C16.8887 27.2156 17.634 27.2718 18.384 27.3328C18.7309 27.3609 19.0965 27.389 19.3871 27.5812C20.198 28.1015 19.9777 29.414 20.6199 30.1312C21.1168 30.6797 21.9512 30.7125 22.6871 30.6984C24.7637 30.6656 26.8449 30.6093 28.9215 30.5343C29.1137 30.5297 29.3152 30.5203 29.4934 30.4453C29.7418 30.3422 29.9199 30.1312 30.0934 29.9297C31.4976 28.3108 33.1304 26.9054 34.9402 25.7578C35.3996 25.4672 35.8824 25.1812 36.1871 24.7359C36.4637 24.3375 36.5715 23.8453 36.6746 23.3718C36.7824 22.8656 36.8949 22.3547 37.0027 21.8484C37.0496 21.6375 37.0965 21.4172 37.0543 21.2015C36.9981 20.9062 36.7871 20.6672 36.5949 20.4328C36.1002 19.8271 35.7018 19.1489 35.4137 18.4218C35.2777 18.075 35.1605 17.714 34.9309 17.4187C34.7012 17.1281 34.3168 16.9172 33.9559 17.0156" fill="#E2D2BA"/>
</g>
<path d="M23.8267 23.4703C24.3657 24.0468 24.3611 24.9468 24.3282 25.7484C24.2954 26.5781 24.3986 28.1062 24.9611 28.064C25.3548 27.9843 25.4767 27.4968 25.5236 27.0984C25.6361 26.1187 25.7486 25.1015 25.4298 24.1687C25.2892 23.7609 25.0548 23.3625 24.6892 23.1421C24.3564 22.9453 23.4048 22.8093 23.8267 23.4703Z" fill="#F7EFDA"/>
<path d="M48.4258 24.5532L49.9492 24.4313L52.5227 46.7485C53.0055 50.4844 47.7648 52.6125 42.6789 53.2735L39.1258 25.7578L48.4258 24.5532ZM29.8164 26.9531L28.3164 27.2203L31.4945 49.4578C31.9773 53.1938 37.5836 53.925 42.6742 53.2641L39.1211 25.7485L29.8164 26.9531Z" fill="#E0E0E0"/>
<path d="M38.7935 23.2265C41.4982 22.8797 44.0669 22.8609 46.031 23.1797C47.7138 23.4515 48.7638 23.9625 48.8388 24.5343C48.9138 25.1109 48.0278 25.8656 46.4669 26.5593C44.6482 27.3656 42.1591 28.0031 39.4591 28.35C36.7591 28.6968 34.1857 28.7156 32.2263 28.3968C30.5435 28.125 29.4935 27.614 29.4185 27.0422C29.3435 26.4656 30.2294 25.7109 31.7903 25.0172C33.5997 24.2109 36.0935 23.5781 38.7935 23.2265Z" fill="#FAFAFA"/>
<path d="M48.8711 33.1594L50.3711 45.5625C50.3805 46.2704 49.8977 47.011 49.1617 47.4704C47.8492 48.2907 45.2055 49.2704 42.1914 49.6594C39.3086 50.0297 36.7867 49.7719 35.282 49.3547C34.3305 49.0875 33.5055 48.4172 33.3133 47.7704L31.5742 35.386" fill="#FBCC2F"/>
<path d="M40.4997 36.412C45.2778 35.7948 49.0278 34.3392 48.8756 33.1607C48.7234 31.9822 44.7266 31.5272 39.9484 32.1443C35.1703 32.7615 31.4203 34.2172 31.5725 35.3957C31.7247 36.5742 35.7216 37.0292 40.4997 36.412Z" fill="#E5A315"/>
<path d="M28.3073 27.1875C28.0776 25.4203 32.5588 23.4891 38.7229 22.6922C44.8916 21.8953 49.7104 22.6266 49.9401 24.3938C50.1698 26.161 45.6885 28.0922 39.5245 28.8891C33.3604 29.686 28.537 28.9547 28.3073 27.1875ZM31.7854 25.0172C30.2245 25.711 29.3385 26.4656 29.4135 27.0422C29.4885 27.6188 30.5385 28.125 32.2213 28.3969C34.1854 28.7156 36.7541 28.6969 39.4541 28.35C42.1541 28.0031 44.6479 27.3656 46.462 26.5594C48.0229 25.8656 48.9088 25.111 48.8338 24.5344C48.7588 23.9578 47.7088 23.4516 46.026 23.1797C44.062 22.861 41.4932 22.8797 38.7885 23.2266C36.0838 23.5735 33.5995 24.211 31.7854 25.0172Z" fill="#CECFD1"/>
<path d="M38.0421 48.4127C38.2706 48.3832 38.4319 48.174 38.4024 47.9455C38.3729 47.717 38.1637 47.5557 37.9352 47.5852C37.7067 47.6147 37.5454 47.8239 37.5749 48.0524C37.6044 48.2809 37.8136 48.4422 38.0421 48.4127Z" fill="#E5A315"/>
<path d="M36.9662 47.265C37.1228 47.2448 37.2334 47.1014 37.2132 46.9448C37.1929 46.7882 37.0496 46.6776 36.893 46.6979C36.7363 46.7181 36.6258 46.8615 36.646 47.0181C36.6662 47.1747 36.8096 47.2853 36.9662 47.265Z" fill="#E5A315"/>
<path d="M38.7509 46.7152C39.0282 46.6794 39.224 46.4255 39.1882 46.1483C39.1523 45.871 38.8985 45.6752 38.6212 45.711C38.3439 45.7468 38.1482 46.0007 38.184 46.278C38.2198 46.5552 38.4736 46.751 38.7509 46.7152Z" fill="#E5A315"/>
<path d="M36.9482 46.4384C37.2332 46.4016 37.4343 46.1407 37.3975 45.8557C37.3607 45.5707 37.0998 45.3696 36.8149 45.4064C36.5299 45.4432 36.3287 45.7041 36.3655 45.989C36.4023 46.274 36.6632 46.4752 36.9482 46.4384Z" fill="#E5A315"/>
<path d="M38.3038 43.9218C38.5323 43.8922 38.6937 43.6831 38.6641 43.4546C38.6346 43.2261 38.4255 43.0647 38.197 43.0943C37.9684 43.1238 37.8071 43.3329 37.8366 43.5615C37.8662 43.79 38.0753 43.9513 38.3038 43.9218Z" fill="#E5A315"/>
<path d="M37.2336 44.2128C37.4365 44.1866 37.5796 44.001 37.5534 43.7981C37.5272 43.5953 37.3416 43.4521 37.1387 43.4783C36.9359 43.5045 36.7927 43.6902 36.8189 43.893C36.8451 44.0959 37.0308 44.239 37.2336 44.2128Z" fill="#E5A315"/>
<path d="M35.3684 42.0472C35.5712 42.021 35.7144 41.8353 35.6882 41.6325C35.662 41.4297 35.4763 41.2865 35.2735 41.3127C35.0707 41.3389 34.9275 41.5245 34.9537 41.7274C34.9799 41.9302 35.1656 42.0734 35.3684 42.0472Z" fill="#E5A315"/>
<path d="M38.624 39.5013C38.8808 39.4682 39.0621 39.2331 39.0289 38.9764C38.9957 38.7196 38.7607 38.5384 38.504 38.5715C38.2472 38.6047 38.0659 38.8397 38.0991 39.0965C38.1323 39.3532 38.3673 39.5345 38.624 39.5013Z" fill="#E5A315"/>
<path d="M36.7391 43.2831C37.0523 43.2427 37.2734 42.9559 37.233 42.6427C37.1925 42.3295 36.9058 42.1083 36.5926 42.1488C36.2793 42.1892 36.0582 42.476 36.0986 42.7892C36.1391 43.1024 36.4258 43.3236 36.7391 43.2831Z" fill="#E5A315"/>
<path d="M37.9989 41.3331C38.307 41.2933 38.5245 41.0113 38.4847 40.7032C38.4449 40.3951 38.1628 40.1776 37.8547 40.2174C37.5466 40.2572 37.3291 40.5392 37.3689 40.8473C37.4087 41.1554 37.6908 41.3729 37.9989 41.3331Z" fill="#E5A315"/>
<path d="M35.9933 40.7578C36.2218 40.7283 36.3831 40.5191 36.3536 40.2906C36.3241 40.0621 36.1149 39.9008 35.8864 39.9303C35.6579 39.9598 35.4966 40.169 35.5261 40.3975C35.5556 40.626 35.7648 40.7873 35.9933 40.7578Z" fill="#E5A315"/>
<path d="M58.9547 34.8515C58.2469 27.6328 55.7578 26.7 53.55 26.6062C50.9672 26.4937 50.1234 25.7484 50.1234 25.7484L48.4922 27.2859L49.7109 37.3734L50.7141 45.1312L52.4438 46.0406C52.4438 46.0406 52.3266 45.164 55.3922 44.0109C58.9125 42.6797 59.5734 41.1469 58.9547 34.8515ZM54.15 40.0781C52.2469 40.3219 51.8484 38.2219 51.5109 35.6156C51.1734 33.0094 50.9016 30.8906 52.9313 30.6281C54.9609 30.3656 55.2328 32.4844 55.5703 35.0906C55.9031 37.6969 56.175 39.8156 54.15 40.0781Z" fill="#E0E0E0"/>
<path d="M50.5218 48.1312C50.3999 48.6516 49.889 49.65 48.2296 50.5031C47.2077 51.0281 45.6796 51.5625 44.3765 51.5672C44.0952 51.5672 44.1562 51.2906 44.339 51.239C45.3937 50.9344 46.4109 50.5359 47.5968 49.9078C49.1437 49.0875 50.128 48.1078 50.2687 47.9859C50.5124 47.775 50.5452 48.0469 50.5218 48.1312ZM53.578 27.6422C54.5015 27.6797 55.139 27.9422 55.8234 28.5609C56.2921 28.9828 56.9718 29.9484 57.0562 30.9094C57.0609 30.9844 57.0749 31.3875 56.9062 31.3922C56.6437 31.4015 56.5359 31.0922 56.4937 30.9609C56.3624 30.5297 55.7296 29.4515 55.3546 29.1234C54.6421 28.4906 53.7843 28.425 53.4327 28.35C53.2218 28.3078 52.6734 28.1203 52.6921 27.9328C52.7202 27.6281 53.3859 27.6328 53.578 27.6422Z" fill="white"/>
<path d="M45.4557 17.0438C45.8072 17.2407 46.1447 17.4844 46.5432 17.5501C47.2135 17.6626 47.8697 17.3063 48.5775 17.4891C50.5791 18.0047 51.6713 19.4579 51.2119 21.4547C51.0572 22.1251 51.3432 22.3969 51.5916 23.0016C52.2713 24.6657 51.3479 26.9954 49.4729 27.4501C48.3525 27.7219 47.1854 27.3235 46.0885 27.586C45.165 27.8063 44.7947 28.7391 44.0072 29.1657C43.2666 29.5735 42.3994 29.7657 41.565 29.8454C40.44 29.9532 38.865 29.2735 37.9416 30.211C36.5166 31.6594 37.8807 34.0969 36.1322 35.4704C35.415 36.0329 34.3416 36.061 33.5494 35.6907C32.0213 34.9829 32.1197 33.0938 31.5338 31.7719C31.3791 31.4204 31.1916 31.1063 30.8353 30.9235C30.4791 30.7407 30.1275 30.8485 29.7525 30.7547C29.2463 30.6282 28.7588 30.4313 28.3463 30.1126C27.8635 29.7376 28.0697 28.8985 27.3385 28.8516C27.1135 28.8376 26.8135 28.7485 26.626 28.6454C25.6135 28.0688 25.2291 26.6954 25.7775 25.6688C25.9791 25.2938 26.1525 25.1719 26.1525 24.736C26.1525 24.3422 26.0213 24.0188 26.1197 23.6016C26.3541 22.5797 27.165 21.8532 28.1213 21.4594C28.2994 21.3844 28.4869 21.3188 28.6744 21.2626C28.9885 21.1641 29.251 21.1172 29.4619 20.8501C29.5744 20.7141 29.6494 20.5266 29.7197 20.3672C29.9213 19.936 30.2166 19.5751 30.5494 19.2422C31.5432 18.2485 32.9869 17.8641 34.3744 17.8735C34.7494 17.8735 35.0916 17.9579 35.4619 18.0422C36.3854 18.2485 36.6525 17.6251 37.3088 17.161C38.1244 16.5844 39.1744 16.4391 40.1541 16.4532C40.7307 16.4626 41.19 16.7438 41.7244 16.8891C42.3432 17.0626 42.6525 16.8376 43.2338 16.7204C43.7541 16.6172 44.326 16.6782 44.8416 16.7813C45.0525 16.8329 45.2588 16.9313 45.4557 17.0438Z" fill="#E9E2CF"/>
<mask id="mask1_644_6495" style="mask-type:luminance" maskUnits="userSpaceOnUse" x="25" y="16" width="27" height="20">
<path d="M45.4557 17.0438C45.8072 17.2407 46.1447 17.4844 46.5432 17.5501C47.2135 17.6626 47.8697 17.3063 48.5775 17.4891C50.5791 18.0047 51.6713 19.4579 51.2119 21.4547C51.0572 22.1251 51.3432 22.3969 51.5916 23.0016C52.2713 24.6657 51.3479 26.9954 49.4729 27.4501C48.3525 27.7219 47.1854 27.3235 46.0885 27.586C45.165 27.8063 44.7947 28.7391 44.0072 29.1657C43.2666 29.5735 42.3994 29.7657 41.565 29.8454C40.44 29.9532 38.865 29.2735 37.9416 30.211C36.5166 31.6594 37.8807 34.0969 36.1322 35.4704C35.415 36.0329 34.3416 36.061 33.5494 35.6907C32.0213 34.9829 32.1197 33.0938 31.5338 31.7719C31.3791 31.4204 31.1916 31.1063 30.8353 30.9235C30.4791 30.7407 30.1275 30.8485 29.7525 30.7547C29.2463 30.6282 28.7588 30.4313 28.3463 30.1126C27.8635 29.7376 28.0697 28.8985 27.3385 28.8516C27.1135 28.8376 26.8135 28.7485 26.626 28.6454C25.6135 28.0688 25.2291 26.6954 25.7775 25.6688C25.9791 25.2938 26.1525 25.1719 26.1525 24.736C26.1525 24.3422 26.0213 24.0188 26.1197 23.6016C26.3541 22.5797 27.165 21.8532 28.1213 21.4594C28.2994 21.3844 28.4869 21.3188 28.6744 21.2626C28.9885 21.1641 29.251 21.1172 29.4619 20.8501C29.5744 20.7141 29.6494 20.5266 29.7197 20.3672C29.9213 19.936 30.2166 19.5751 30.5494 19.2422C31.5432 18.2485 32.9869 17.8641 34.3744 17.8735C34.7494 17.8735 35.0916 17.9579 35.4619 18.0422C36.3854 18.2485 36.6525 17.6251 37.3088 17.161C38.1244 16.5844 39.1744 16.4391 40.1541 16.4532C40.7307 16.4626 41.19 16.7438 41.7244 16.8891C42.3432 17.0626 42.6525 16.8376 43.2338 16.7204C43.7541 16.6172 44.326 16.6782 44.8416 16.7813C45.0525 16.8329 45.2588 16.9313 45.4557 17.0438Z" fill="white"/>
</mask>
<g mask="url(#mask1_644_6495)">
<path d="M25.5845 23.8407C25.8798 24.6423 26.6158 25.2704 27.4548 25.4298C28.2939 25.5891 29.2126 25.2798 29.7798 24.6423C30.1173 24.9938 30.8486 24.5157 31.0923 24.6423C31.3361 24.7688 31.9689 26.1563 32.7986 26.1235C33.3751 26.6579 34.247 26.8548 34.9923 26.611C35.7376 26.3673 36.1314 24.9048 36.483 24.9282C36.8345 24.9516 37.0923 25.4204 37.472 25.397C37.6595 25.3876 37.8517 25.3313 38.0392 25.3735C38.4189 25.4626 38.5876 25.922 38.9298 26.1048C39.258 26.2782 39.6658 26.1657 40.0314 26.236C40.2658 26.2829 40.4767 26.4048 40.697 26.5032C41.5642 26.8923 42.6095 26.8735 43.4626 26.4563C43.891 26.2444 44.268 25.9417 44.5675 25.5694C44.867 25.197 45.0818 24.7639 45.197 24.3001C45.7923 24.8298 47.1939 25.0829 47.5923 24.9141C47.9908 24.7454 48.497 25.5188 49.0548 25.5563C49.6501 25.5985 50.2595 25.636 50.8267 25.4579C51.3939 25.2798 51.9189 24.8391 52.0173 24.2532C52.3408 24.9845 52.7814 25.6641 53.3158 26.2595C51.3564 27.4923 49.4017 28.7298 47.4423 29.9626C47.1751 30.1313 46.9033 30.3048 46.7111 30.5532C46.2658 31.1345 46.3408 31.9876 45.9095 32.5829C45.4501 33.211 44.583 33.347 43.8048 33.4266C43.0595 33.5063 42.3142 33.5813 41.5736 33.661C41.2267 33.6985 40.8658 33.7407 40.5751 33.9376C39.783 34.4813 40.0361 35.7845 39.4126 36.5204C38.9345 37.0829 38.1001 37.1391 37.3595 37.1438C35.283 37.1673 33.2017 37.172 31.1251 37.1579C30.933 37.1579 30.7314 37.1532 30.5486 37.0829C30.3001 36.9891 30.1126 36.7829 29.9345 36.586C28.484 35.0087 26.8118 33.6507 24.9705 32.5548C24.5064 32.2782 24.0142 32.0063 23.6955 31.5704C23.4095 31.1766 23.283 30.6938 23.1705 30.2204C23.0439 29.7141 22.922 29.2079 22.7955 28.7063C22.7439 28.4954 22.6923 28.2751 22.7251 28.0595C22.772 27.7595 22.9783 27.5157 23.1658 27.2766C23.6439 26.6579 24.0236 25.9641 24.2908 25.2329C24.4173 24.8813 24.5251 24.5157 24.7455 24.2204C24.9658 23.9204 25.3455 23.7001 25.7064 23.7891" fill="#E2D2BA"/>
</g>
<path d="M36.018 29.9579C35.4977 30.5485 35.5258 31.4485 35.5821 32.2501C35.6383 33.0797 35.5821 34.6079 35.0149 34.5844C34.6212 34.5141 34.4852 34.0313 34.4243 33.6329C34.2837 32.6579 34.143 31.6454 34.4337 30.7032C34.5602 30.2907 34.7852 29.8876 35.1462 29.6532C35.4696 29.4469 36.4165 29.2829 36.018 29.9579Z" fill="#F7EFDA"/>
</svg>
