<svg width="20" height="20" viewBox="0 0 20 20" fill="none" xmlns="http://www.w3.org/2000/svg">
<path d="M16.2153 3.78468C15.9666 3.53591 15.6713 3.33857 15.3463 3.20393C15.0213 3.0693 14.6729 3 14.3211 3C13.9693 3 13.621 3.0693 13.296 3.20393C12.971 3.33857 12.6757 3.53591 12.4269 3.78468L11.6572 4.55579C11.6187 4.58657 11.5836 4.62127 11.5523 4.65935L3.91112 12.3019C3.81342 12.3993 3.74671 12.5235 3.71939 12.6588L3.01405 16.1575C2.99104 16.2705 2.99635 16.3875 3.02951 16.4981C3.06267 16.6086 3.12265 16.7092 3.20411 16.7909C3.28557 16.8727 3.38597 16.933 3.49639 16.9665C3.6068 17.0001 3.72379 17.0058 3.83695 16.9831L7.34124 16.2834C7.4765 16.2561 7.60065 16.1894 7.6981 16.0917L16.2153 7.57446C16.4641 7.32573 16.6614 7.03042 16.7961 6.70542C16.9307 6.38041 17 6.03206 17 5.68027C17 5.32848 16.9307 4.98013 16.7961 4.65513C16.6614 4.33012 16.4641 4.03482 16.2153 3.78608M12.0995 6.09382L13.909 7.90334L6.85842 14.9525L4.59406 15.4059L5.04889 13.1444L12.0995 6.09382ZM14.8984 6.91391L13.0889 5.10299L13.4164 4.77551C13.5346 4.65437 13.6756 4.55789 13.8314 4.49167C13.9872 4.42545 14.1545 4.3908 14.3238 4.38973C14.493 4.38866 14.6608 4.42119 14.8174 4.48544C14.974 4.54969 15.1163 4.64437 15.236 4.764C15.3557 4.88364 15.4505 5.02585 15.5149 5.18238C15.5792 5.33892 15.6119 5.50668 15.611 5.67593C15.61 5.84518 15.5755 6.01256 15.5094 6.16838C15.4433 6.32419 15.3469 6.46534 15.2259 6.58363L14.8984 6.91391Z" fill="#666666"/>
</svg>
