<svg width="20" height="21" viewBox="0 0 20 21" fill="none" xmlns="http://www.w3.org/2000/svg">
<path d="M13.9062 3.15625C12.2656 3.15625 10.8391 3.89609 10 5.13594C9.16094 3.89609 7.73438 3.15625 6.09375 3.15625C4.85099 3.1577 3.65955 3.65202 2.78079 4.53079C1.90202 5.40955 1.4077 6.60099 1.40625 7.84375C1.40625 10.125 2.82812 12.4992 5.63281 14.8992C6.91801 15.9943 8.30626 16.9624 9.77813 17.7898C9.84634 17.8265 9.92257 17.8457 10 17.8457C10.0774 17.8457 10.1537 17.8265 10.2219 17.7898C11.6937 16.9624 13.082 15.9943 14.3672 14.8992C17.1719 12.4992 18.5938 10.125 18.5938 7.84375C18.5923 6.60099 18.098 5.40955 17.2192 4.53079C16.3405 3.65202 15.149 3.1577 13.9062 3.15625ZM10 16.8367C8.71797 16.0969 2.34375 12.1969 2.34375 7.84375C2.34478 6.84951 2.7402 5.89628 3.44324 5.19324C4.14628 4.4902 5.09951 4.09478 6.09375 4.09375C7.67812 4.09375 9.00859 4.93984 9.56641 6.30234C9.60172 6.38832 9.6618 6.46185 9.739 6.5136C9.81621 6.56535 9.90706 6.59298 10 6.59298C10.0929 6.59298 10.1838 6.56535 10.261 6.5136C10.3382 6.46185 10.3983 6.38832 10.4336 6.30234C10.9914 4.93984 12.3219 4.09375 13.9062 4.09375C14.9005 4.09478 15.8537 4.4902 16.5568 5.19324C17.2598 5.89628 17.6552 6.84951 17.6562 7.84375C17.6562 12.1969 11.282 16.0969 10 16.8367Z" fill="#FD5A36"/>
</svg>
