<svg width="21" height="21" viewBox="0 0 21 21" fill="none" xmlns="http://www.w3.org/2000/svg">
<path fill-rule="evenodd" clip-rule="evenodd" d="M9.34085 2.10667e-08C7.85123 0.000126927 6.38324 0.356482 5.05936 1.03933C3.73548 1.72219 2.59409 2.71173 1.73042 3.92542C0.866746 5.1391 0.305842 6.54173 0.0944992 8.01628C-0.116843 9.49082 0.0275043 10.9945 0.5155 12.4019C1.00349 13.8094 1.82099 15.0797 2.89977 16.1069C3.97856 17.1341 5.28735 17.8885 6.71696 18.307C8.14657 18.7255 9.65554 18.7961 11.118 18.5128C12.5804 18.2296 13.9539 17.6007 15.1239 16.6787L19.1375 20.6923C19.3448 20.8925 19.6224 21.0033 19.9105 21.0008C20.1987 20.9982 20.4743 20.8827 20.6781 20.6789C20.8819 20.4751 20.9975 20.1995 21 19.9113C21.0025 19.6232 20.8917 19.3456 20.6915 19.1383L16.6779 15.1247C17.7637 13.7472 18.4398 12.0918 18.6287 10.348C18.8177 8.60426 18.5119 6.8425 17.7464 5.26439C16.9808 3.68629 15.7865 2.35558 14.2999 1.42458C12.8134 0.493576 11.0948 -0.000117752 9.34085 2.10667e-08ZM2.19724 9.34164C2.19724 7.44704 2.94987 5.63003 4.28955 4.29035C5.62924 2.95066 7.44625 2.19803 9.34085 2.19803C11.2355 2.19803 13.0525 2.95066 14.3921 4.29035C15.7318 5.63003 16.4845 7.44704 16.4845 9.34164C16.4845 11.2362 15.7318 13.0533 14.3921 14.3929C13.0525 15.7326 11.2355 16.4853 9.34085 16.4853C7.44625 16.4853 5.62924 15.7326 4.28955 14.3929C2.94987 13.0533 2.19724 11.2362 2.19724 9.34164Z" fill="#FD9B36"/>
</svg>
