<svg width="80" height="80" viewBox="0 0 80 80" fill="none" xmlns="http://www.w3.org/2000/svg">
<circle cx="40" cy="40" r="40" fill="#FFF5EB"/>
<path fill-rule="evenodd" clip-rule="evenodd" d="M33.1529 29.9827C33.5379 28.236 35.2191 27 37.144 27H41.856C43.7809 27 45.4607 28.236 45.8471 29.9827C45.8897 30.175 46.001 30.3485 46.1631 30.4752C46.3253 30.602 46.5288 30.6746 46.741 30.6813H46.7886C48.8115 30.764 50.3659 30.9933 51.6635 31.7813C52.4811 32.2773 53.1847 32.9147 53.7326 33.66C54.4146 34.5853 54.7145 35.6493 54.8587 36.9347C55 38.192 55 39.7667 55 41.7613V41.8747C55 43.8693 55 45.4453 54.8587 46.7013C54.7145 47.9867 54.4146 49.0507 53.7326 49.9773C53.183 50.7231 52.4799 51.3615 51.6635 51.856C50.6499 52.4707 49.4863 52.7427 48.0762 52.872C46.6949 53 44.9632 53 42.7629 53H36.2371C34.0368 53 32.3051 53 30.9238 52.872C29.5137 52.7427 28.3501 52.472 27.3365 51.856C26.5199 51.3611 25.8169 50.7222 25.2674 49.976C24.5854 49.0507 24.2855 47.9867 24.1413 46.7013C24 45.4453 24 43.8693 24 41.8747V41.7613C24 39.7667 24 38.192 24.1413 36.9347C24.2855 35.6493 24.5854 34.5853 25.2674 33.66C25.8169 32.9138 26.5199 32.2749 27.3365 31.78C28.6341 30.9933 30.1885 30.764 32.2114 30.6827L32.2359 30.6813H32.259C32.4712 30.6746 32.6747 30.602 32.8369 30.4752C32.999 30.3485 33.1103 30.175 33.1529 29.9827ZM37.144 29C36.2212 29 35.4469 29.5907 35.2725 30.3813C34.9913 31.6613 33.7628 32.6693 32.2849 32.6813C30.3413 32.7613 29.3003 32.9813 28.5217 33.4533C27.9433 33.8043 27.4451 34.2569 27.0553 34.7853C26.6573 35.3253 26.418 36.0173 26.2911 37.1413C26.1642 38.2827 26.1628 39.7547 26.1628 41.8187C26.1628 43.8827 26.1628 45.3533 26.2926 46.4947C26.418 47.6187 26.6573 48.3107 27.0567 48.852C27.4432 49.3773 27.9406 49.8307 28.5231 50.184C29.1244 50.548 29.8943 50.768 31.1387 50.8827C32.3988 50.9987 34.0224 51 36.2962 51H42.7038C44.9762 51 46.5997 51 47.8613 50.8827C49.1057 50.768 49.8756 50.5493 50.4769 50.184C51.0594 49.8307 51.5583 49.3773 51.9447 48.8507C52.3427 48.3107 52.582 47.6187 52.7089 46.4947C52.8358 45.3533 52.8372 43.8813 52.8372 41.8187C52.8372 39.7547 52.8372 38.2827 52.7074 37.1413C52.582 36.0173 52.3427 35.3253 51.9433 34.7853C51.5539 34.2562 51.0556 33.8031 50.4769 33.452C49.7012 32.9813 48.6601 32.7613 46.7136 32.6813C45.2372 32.668 44.0087 31.6627 43.7275 30.3813C43.6353 29.987 43.3987 29.6343 43.0577 29.3826C42.7167 29.1309 42.2922 28.9958 41.856 29H37.144ZM39.5 38.3333C38.6396 38.3333 37.8144 38.6494 37.206 39.212C36.5976 39.7746 36.2558 40.5377 36.2558 41.3333C36.2558 42.129 36.5976 42.892 37.206 43.4547C37.8144 44.0173 38.6396 44.3333 39.5 44.3333C40.3604 44.3333 41.1856 44.0173 41.794 43.4547C42.4024 42.892 42.7442 42.129 42.7442 41.3333C42.7442 40.5377 42.4024 39.7746 41.794 39.212C41.1856 38.6494 40.3604 38.3333 39.5 38.3333ZM34.093 41.3333C34.093 40.0073 34.6627 38.7355 35.6767 37.7978C36.6907 36.8601 38.066 36.3333 39.5 36.3333C40.934 36.3333 42.3093 36.8601 43.3233 37.7978C44.3373 38.7355 44.907 40.0073 44.907 41.3333C44.907 42.6594 44.3373 43.9312 43.3233 44.8689C42.3093 45.8065 40.934 46.3333 39.5 46.3333C38.066 46.3333 36.6907 45.8065 35.6767 44.8689C34.6627 43.9312 34.093 42.6594 34.093 41.3333ZM47.0698 37.3333C47.0698 37.0681 47.1837 36.8138 47.3865 36.6262C47.5893 36.4387 47.8644 36.3333 48.1512 36.3333H49.593C49.8798 36.3333 50.1549 36.4387 50.3577 36.6262C50.5605 36.8138 50.6744 37.0681 50.6744 37.3333C50.6744 37.5985 50.5605 37.8529 50.3577 38.0404C50.1549 38.228 49.8798 38.3333 49.593 38.3333H48.1512C47.8644 38.3333 47.5893 38.228 47.3865 38.0404C47.1837 37.8529 47.0698 37.5985 47.0698 37.3333Z" fill="#FD9B36"/>
</svg>
