<svg width="29" height="29" viewBox="0 0 29 29" fill="none" xmlns="http://www.w3.org/2000/svg">
<rect width="29" height="29" fill="white"/>
<path d="M12.5341 19.8498C12.4814 19.9054 12.4403 19.971 12.413 20.0426C12.3857 20.1141 12.3727 20.1904 12.3749 20.267C12.3771 20.3436 12.3943 20.419 12.4256 20.4889C12.4569 20.5589 12.5017 20.622 12.5574 20.6746C12.6131 20.7272 12.6786 20.7684 12.7502 20.7957C12.8218 20.823 12.898 20.8359 12.9746 20.8338C13.0512 20.8316 13.1266 20.8144 13.1966 20.783C13.2665 20.7517 13.3296 20.7069 13.3822 20.6513L18.3406 15.4013C18.4429 15.2929 18.5 15.1496 18.5 15.0005C18.5 14.8515 18.4429 14.7081 18.3406 14.5998L13.3822 9.34917C13.3299 9.29226 13.2669 9.24631 13.1967 9.21398C13.1265 9.18164 13.0506 9.16358 12.9733 9.16084C12.8961 9.1581 12.8191 9.17073 12.7468 9.19799C12.6745 9.22526 12.6083 9.26663 12.5521 9.31968C12.4959 9.37274 12.4509 9.43643 12.4195 9.50706C12.3881 9.57769 12.3711 9.65384 12.3694 9.7311C12.3678 9.80836 12.3814 9.88519 12.4097 9.95712C12.438 10.029 12.4802 10.0946 12.5341 10.1501L17.1144 15.0005L12.5341 19.8498Z" fill="#999999"/>
</svg>
