<svg width="29" height="29" viewBox="0 0 29 29" fill="none" xmlns="http://www.w3.org/2000/svg">
<rect width="29" height="29" rx="5" fill="#FD9B36"/>
<path d="M17.4659 10.1502C17.5186 10.0946 17.5597 10.029 17.587 9.95745C17.6143 9.88586 17.6273 9.80959 17.6251 9.73299C17.6229 9.6564 17.6057 9.58099 17.5744 9.51105C17.5431 9.44112 17.4983 9.37804 17.4426 9.32541C17.3869 9.27278 17.3214 9.23164 17.2498 9.20433C17.1782 9.17702 17.102 9.16408 17.0254 9.16625C16.9488 9.16842 16.8734 9.18565 16.8034 9.21696C16.7335 9.24827 16.6704 9.29305 16.6178 9.34874L11.6594 14.5987C11.5571 14.7071 11.5 14.8504 11.5 14.9995C11.5 15.1485 11.5571 15.2919 11.6594 15.4002L16.6178 20.6508C16.6701 20.7077 16.7331 20.7537 16.8033 20.786C16.8735 20.8184 16.9494 20.8364 17.0267 20.8392C17.1039 20.8419 17.1809 20.8293 17.2532 20.802C17.3255 20.7747 17.3917 20.7334 17.4479 20.6803C17.5041 20.6273 17.5491 20.5636 17.5805 20.4929C17.6119 20.4223 17.6289 20.3462 17.6306 20.2689C17.6322 20.1916 17.6186 20.1148 17.5903 20.0429C17.562 19.971 17.5198 19.9054 17.4659 19.8499L12.8856 14.9995L17.4659 10.1502Z" fill="white"/>
</svg>
