<svg width="25" height="25" viewBox="0 0 25 25" fill="none" xmlns="http://www.w3.org/2000/svg">
<g clip-path="url(#clip0_1075_7112)">
<circle cx="12.5" cy="12.5" r="12.5" fill="#BDCDED"/>
<path d="M12.5002 3.84375C11.2155 3.84375 9.98349 4.35407 9.07511 5.26245C8.16674 6.17083 7.65641 7.40286 7.65641 8.6875C7.65641 9.97214 8.16674 11.2042 9.07511 12.1125C9.98349 13.0209 11.2155 13.5312 12.5002 13.5312C13.7848 13.5312 15.0168 13.0209 15.9252 12.1125C16.8336 11.2042 17.3439 9.97214 17.3439 8.6875C17.3439 7.40286 16.8336 6.17083 15.9252 5.26245C15.0168 4.35407 13.7848 3.84375 12.5002 3.84375ZM7.3335 16.1146C6.04885 16.1146 4.81683 16.6249 3.90845 17.5333C3.00007 18.4417 2.48975 19.6737 2.48975 20.9583V22.4928C2.48975 23.4667 3.195 24.296 4.156 24.4523C9.68175 25.3552 15.3186 25.3552 20.8443 24.4523C21.3094 24.3766 21.7324 24.1379 22.0377 23.7789C22.343 23.4199 22.5106 22.9641 22.5106 22.4928V20.9583C22.5106 19.6737 22.0003 18.4417 21.0919 17.5333C20.1835 16.6249 18.9515 16.1146 17.6668 16.1146H17.2277C16.9887 16.1146 16.751 16.1533 16.525 16.2257L15.4064 16.5912C13.5179 17.2076 11.4824 17.2076 9.59391 16.5912L8.47533 16.2257C8.24884 16.152 8.01214 16.1145 7.77395 16.1146H7.3335Z" fill="black"/>
</g>
<defs>
<clipPath id="clip0_1075_7112">
<rect width="25" height="25" rx="12.5" fill="white"/>
</clipPath>
</defs>
</svg>
