<svg width="26" height="26" viewBox="0 0 26 26" fill="none" xmlns="http://www.w3.org/2000/svg">
<path fill-rule="evenodd" clip-rule="evenodd" d="M11.5649 2.60826e-08C9.72057 0.000157148 7.90307 0.441358 6.26397 1.28679C4.62488 2.13223 3.21173 3.35738 2.14242 4.86004C1.07311 6.3627 0.378661 8.09928 0.116999 9.92491C-0.144663 11.7505 0.034053 13.6123 0.638238 15.3548C1.24242 17.0973 2.25456 18.6701 3.59019 19.9419C4.92583 21.2137 6.54624 22.1476 8.31624 22.6658C10.0862 23.184 11.9545 23.2714 13.7651 22.9207C15.5758 22.57 17.2763 21.7914 18.7248 20.6498L23.694 25.619C23.9507 25.8669 24.2944 26.004 24.6511 26.0009C25.0079 25.9978 25.3492 25.8547 25.6015 25.6025C25.8537 25.3502 25.9968 25.0089 25.9999 24.6521C26.003 24.2954 25.8659 23.9516 25.618 23.695L20.6488 18.7258C21.9932 17.0203 22.8302 14.9708 23.0642 12.8119C23.2981 10.6529 22.9195 8.47167 21.9717 6.51782C21.0239 4.56397 19.5451 2.91644 17.7047 1.76377C15.8642 0.611094 13.7365 -0.000145789 11.5649 2.60826e-08ZM2.72039 11.5658C2.72039 9.22015 3.65222 6.97052 5.31088 5.31186C6.96954 3.6532 9.21916 2.72138 11.5649 2.72138C13.9106 2.72138 16.1602 3.6532 17.8188 5.31186C19.4775 6.97052 20.4093 9.22015 20.4093 11.5658C20.4093 13.9115 19.4775 16.1612 17.8188 17.8198C16.1602 19.4785 13.9106 20.4103 11.5649 20.4103C9.21916 20.4103 6.96954 19.4785 5.31088 17.8198C3.65222 16.1612 2.72039 13.9115 2.72039 11.5658Z" fill="#FD9B36"/>
</svg>
