<svg width="20" height="20" viewBox="0 0 20 20" fill="none" xmlns="http://www.w3.org/2000/svg">
<path fill-rule="evenodd" clip-rule="evenodd" d="M11.8755 4.58309C11.8756 3.95033 12.0972 3.33756 12.5019 2.85114C12.9066 2.36472 13.4688 2.03536 14.091 1.92022C14.7132 1.80508 15.3561 1.91143 15.908 2.22081C16.46 2.53019 16.8862 3.02308 17.1127 3.61391C17.3392 4.20475 17.3517 4.85624 17.148 5.45531C16.9442 6.05437 16.5372 6.5632 15.9975 6.89347C15.4577 7.22375 14.8194 7.35461 14.1933 7.26336C13.5671 7.17211 12.9927 6.8645 12.5697 6.39392L10.3055 7.62892L7.77216 9.07642C8.12634 9.6998 8.21922 10.4381 8.03049 11.1298L12.5697 13.6056C13.0138 13.1122 13.6236 12.7991 14.2833 12.7257C14.9431 12.6523 15.6068 12.8238 16.1485 13.2076C16.6901 13.5914 17.072 14.1607 17.2215 14.8075C17.371 15.4543 17.2777 16.1334 16.9594 16.716C16.6412 17.2985 16.12 17.7439 15.495 17.9675C14.8699 18.1911 14.1846 18.1774 13.569 17.9289C12.9534 17.6804 12.4505 17.2145 12.1558 16.6197C11.8612 16.0249 11.7952 15.3425 11.9705 14.7023L7.43133 12.2273C7.08539 12.612 6.63647 12.8896 6.1377 13.0273C5.63892 13.1649 5.11115 13.1568 4.61685 13.0038C4.12255 12.8509 3.6824 12.5596 3.34848 12.1643C3.01456 11.7691 2.80085 11.2865 2.73263 10.7736C2.66441 10.2607 2.74454 9.73897 2.96354 9.27018C3.18254 8.8014 3.53124 8.40516 3.96838 8.12834C4.40552 7.85153 4.91281 7.70573 5.43022 7.70819C5.94763 7.71066 6.45351 7.86129 6.88799 8.14225L9.69633 6.53725L11.9705 5.29642C11.9073 5.06392 11.8753 4.82403 11.8755 4.58309ZM14.5838 3.12475C14.1971 3.12475 13.8261 3.2784 13.5526 3.55189C13.2791 3.82538 13.1255 4.19631 13.1255 4.58309C13.1255 4.96986 13.2791 5.34079 13.5526 5.61428C13.8261 5.88777 14.1971 6.04142 14.5838 6.04142C14.9706 6.04142 15.3415 5.88777 15.615 5.61428C15.8885 5.34079 16.0422 4.96986 16.0422 4.58309C16.0422 4.19631 15.8885 3.82538 15.615 3.55189C15.3415 3.2784 14.9706 3.12475 14.5838 3.12475ZM5.41716 8.95809C5.03039 8.95809 4.65945 9.11173 4.38596 9.38522C4.11247 9.65871 3.95883 10.0296 3.95883 10.4164C3.95883 10.8032 4.11247 11.1741 4.38596 11.4476C4.65945 11.7211 5.03039 11.8748 5.41716 11.8748C5.80394 11.8748 6.17487 11.7211 6.44836 11.4476C6.72185 11.1741 6.87549 10.8032 6.87549 10.4164C6.87549 10.0296 6.72185 9.65871 6.44836 9.38522C6.17487 9.11173 5.80394 8.95809 5.41716 8.95809ZM13.1255 15.4164C13.1255 15.0296 13.2791 14.6587 13.5526 14.3852C13.8261 14.1117 14.1971 13.9581 14.5838 13.9581C14.9706 13.9581 15.3415 14.1117 15.615 14.3852C15.8885 14.6587 16.0422 15.0296 16.0422 15.4164C16.0422 15.8032 15.8885 16.1741 15.615 16.4476C15.3415 16.7211 14.9706 16.8748 14.5838 16.8748C14.1971 16.8748 13.8261 16.7211 13.5526 16.4476C13.2791 16.1741 13.1255 15.8032 13.1255 15.4164Z" fill="black"/>
</svg>
