<svg width="20" height="26" viewBox="0 0 20 26" fill="none" xmlns="http://www.w3.org/2000/svg">
<path fill-rule="evenodd" clip-rule="evenodd" d="M11.8 12.4964L6.29542 23.7226C6.1088 24.1038 5.84262 24.4417 5.51436 24.7142C5.1861 24.9866 4.80318 25.1874 4.39076 25.3033C3.97834 25.4193 3.54574 25.4477 3.12137 25.3869C2.697 25.3261 2.29047 25.1773 1.92847 24.9503C1.56646 24.7234 1.25718 24.4234 1.02094 24.07C0.784689 23.7167 0.626819 23.318 0.557694 22.9001C0.488569 22.4823 0.509753 22.0547 0.619854 21.6455C0.729956 21.2363 0.926485 20.8547 1.19653 20.5259L9.14574 10.8323C8.05028 9.35365 7.38759 6.87675 9.04216 4.30232C10.0444 2.74555 11.4422 1.60567 12.8817 1.00408C14.2823 0.418973 15.948 0.263684 17.2713 1.09331C18.5942 1.92168 19.1606 3.47748 19.2197 4.97665C19.2805 6.51886 18.8304 8.25398 17.8281 9.81074C16.1726 12.3867 13.6213 12.8464 11.8 12.4964Z" fill="#FD9B36"/>
</svg>
