<svg width="20" height="20" viewBox="0 0 20 20" fill="none" xmlns="http://www.w3.org/2000/svg">
<path d="M18.3203 8.9359L14.7969 12.0109L15.8524 16.589C15.9082 16.8284 15.8923 17.0788 15.8065 17.3092C15.7208 17.5395 15.5691 17.7394 15.3703 17.884C15.1716 18.0285 14.9346 18.1113 14.6891 18.1219C14.4436 18.1326 14.2004 18.0706 13.9899 17.9437L9.99689 15.5218L6.01252 17.9437C5.80202 18.0706 5.55881 18.1326 5.31328 18.1219C5.06775 18.1113 4.83079 18.0285 4.63204 17.884C4.4333 17.7394 4.28157 17.5395 4.19584 17.3092C4.1101 17.0788 4.09416 16.8284 4.15002 16.589L5.20392 12.0156L1.6797 8.9359C1.49331 8.77514 1.35852 8.56292 1.29225 8.32586C1.22598 8.0888 1.23117 7.83745 1.30718 7.60333C1.38319 7.36921 1.52663 7.16275 1.71952 7.00982C1.9124 6.8569 2.14614 6.76433 2.39142 6.74372L7.03674 6.34137L8.85002 2.01637C8.94471 1.78943 9.10443 1.59558 9.30907 1.45923C9.51371 1.32288 9.75411 1.25012 10 1.25012C10.2459 1.25012 10.4863 1.32288 10.691 1.45923C10.8956 1.59558 11.0553 1.78943 11.15 2.01637L12.9688 6.34137L17.6125 6.74372C17.8578 6.76433 18.0915 6.8569 18.2844 7.00982C18.4773 7.16275 18.6207 7.36921 18.6968 7.60333C18.7728 7.83745 18.778 8.0888 18.7117 8.32586C18.6454 8.56292 18.5106 8.77514 18.3242 8.9359H18.3203Z" fill="#FFD600"/>
</svg>
