<svg width="100" height="20" viewBox="0 0 100 20" fill="none" xmlns="http://www.w3.org/2000/svg">
<path d="M7.62704 4.50699C8.68288 2.61366 9.21038 1.66699 9.99954 1.66699C10.7887 1.66699 11.3162 2.61366 12.372 4.50699L12.6454 4.99699C12.9454 5.53533 13.0954 5.80449 13.3287 5.98199C13.562 6.15949 13.8537 6.22533 14.437 6.35699L14.967 6.47699C17.017 6.94116 18.0412 7.17283 18.2854 7.95699C18.5287 8.74033 17.8304 9.55783 16.4329 11.192L16.0712 11.6145C15.6745 12.0787 15.4754 12.3112 15.3862 12.5978C15.297 12.8853 15.327 13.1953 15.387 13.8145L15.442 14.3787C15.6529 16.5595 15.7587 17.6495 15.1204 18.1337C14.482 18.6187 13.522 18.1762 11.6037 17.2928L11.1062 17.0645C10.5612 16.8128 10.2887 16.6878 9.99954 16.6878C9.71038 16.6878 9.43788 16.8128 8.89288 17.0645L8.39621 17.2928C6.47704 18.1762 5.51704 18.6178 4.87954 18.1345C4.24038 17.6495 4.34621 16.5595 4.55704 14.3787L4.61204 13.8153C4.67204 13.1953 4.70204 12.8853 4.61204 12.5987C4.52371 12.3112 4.32454 12.0787 3.92788 11.6153L3.56621 11.192C2.16871 9.55866 1.47038 8.74116 1.71371 7.95699C1.95788 7.17283 2.98288 6.94033 5.03288 6.47699L5.56288 6.35699C6.14538 6.22533 6.43621 6.15949 6.67038 5.98199C6.90371 5.80449 7.05371 5.53533 7.35371 4.99699L7.62704 4.50699Z" fill="#FFD600"/>
<path d="M27.627 4.50699C28.6829 2.61366 29.2104 1.66699 29.9995 1.66699C30.7887 1.66699 31.3162 2.61366 32.372 4.50699L32.6454 4.99699C32.9454 5.53533 33.0954 5.80449 33.3287 5.98199C33.562 6.15949 33.8537 6.22533 34.437 6.35699L34.967 6.47699C37.017 6.94116 38.0412 7.17283 38.2854 7.95699C38.5287 8.74033 37.8304 9.55783 36.4329 11.192L36.0712 11.6145C35.6745 12.0787 35.4754 12.3112 35.3862 12.5978C35.297 12.8853 35.327 13.1953 35.387 13.8145L35.442 14.3787C35.6529 16.5595 35.7587 17.6495 35.1204 18.1337C34.482 18.6187 33.522 18.1762 31.6037 17.2928L31.1062 17.0645C30.5612 16.8128 30.2887 16.6878 29.9995 16.6878C29.7104 16.6878 29.4379 16.8128 28.8929 17.0645L28.3962 17.2928C26.477 18.1762 25.517 18.6178 24.8795 18.1345C24.2404 17.6495 24.3462 16.5595 24.557 14.3787L24.612 13.8153C24.672 13.1953 24.702 12.8853 24.612 12.5987C24.5237 12.3112 24.3245 12.0787 23.9279 11.6153L23.5662 11.192C22.1687 9.55866 21.4704 8.74116 21.7137 7.95699C21.9579 7.17283 22.9829 6.94033 25.0329 6.47699L25.5629 6.35699C26.1454 6.22533 26.4362 6.15949 26.6704 5.98199C26.9037 5.80449 27.0537 5.53533 27.3537 4.99699L27.627 4.50699Z" fill="#FFD600"/>
<path d="M47.627 4.50699C48.6829 2.61366 49.2104 1.66699 49.9995 1.66699C50.7887 1.66699 51.3162 2.61366 52.372 4.50699L52.6454 4.99699C52.9454 5.53533 53.0954 5.80449 53.3287 5.98199C53.562 6.15949 53.8537 6.22533 54.437 6.35699L54.967 6.47699C57.017 6.94116 58.0412 7.17283 58.2854 7.95699C58.5287 8.74033 57.8304 9.55783 56.4329 11.192L56.0712 11.6145C55.6745 12.0787 55.4754 12.3112 55.3862 12.5978C55.297 12.8853 55.327 13.1953 55.387 13.8145L55.442 14.3787C55.6529 16.5595 55.7587 17.6495 55.1204 18.1337C54.482 18.6187 53.522 18.1762 51.6037 17.2928L51.1062 17.0645C50.5612 16.8128 50.2887 16.6878 49.9995 16.6878C49.7104 16.6878 49.4379 16.8128 48.8929 17.0645L48.3962 17.2928C46.477 18.1762 45.517 18.6178 44.8795 18.1345C44.2404 17.6495 44.3462 16.5595 44.557 14.3787L44.612 13.8153C44.672 13.1953 44.702 12.8853 44.612 12.5987C44.5237 12.3112 44.3245 12.0787 43.9279 11.6153L43.5662 11.192C42.1687 9.55866 41.4704 8.74116 41.7137 7.95699C41.9579 7.17283 42.9829 6.94033 45.0329 6.47699L45.5629 6.35699C46.1454 6.22533 46.4362 6.15949 46.6704 5.98199C46.9037 5.80449 47.0537 5.53533 47.3537 4.99699L47.627 4.50699Z" fill="#FFD600"/>
<path d="M67.627 4.50699C68.6829 2.61366 69.2104 1.66699 69.9995 1.66699C70.7887 1.66699 71.3162 2.61366 72.372 4.50699L72.6454 4.99699C72.9454 5.53533 73.0954 5.80449 73.3287 5.98199C73.562 6.15949 73.8537 6.22533 74.437 6.35699L74.967 6.47699C77.017 6.94116 78.0412 7.17283 78.2854 7.95699C78.5287 8.74033 77.8304 9.55783 76.4329 11.192L76.0712 11.6145C75.6745 12.0787 75.4754 12.3112 75.3862 12.5978C75.297 12.8853 75.327 13.1953 75.387 13.8145L75.442 14.3787C75.6529 16.5595 75.7587 17.6495 75.1204 18.1337C74.482 18.6187 73.522 18.1762 71.6037 17.2928L71.1062 17.0645C70.5612 16.8128 70.2887 16.6878 69.9995 16.6878C69.7104 16.6878 69.4379 16.8128 68.8929 17.0645L68.3962 17.2928C66.477 18.1762 65.517 18.6178 64.8795 18.1345C64.2404 17.6495 64.3462 16.5595 64.557 14.3787L64.612 13.8153C64.672 13.1953 64.702 12.8853 64.612 12.5987C64.5237 12.3112 64.3245 12.0787 63.9279 11.6153L63.5662 11.192C62.1687 9.55866 61.4704 8.74116 61.7137 7.95699C61.9579 7.17283 62.9829 6.94033 65.0329 6.47699L65.5629 6.35699C66.1454 6.22533 66.4362 6.15949 66.6704 5.98199C66.9037 5.80449 67.0537 5.53533 67.3537 4.99699L67.627 4.50699Z" fill="#EEEEEE"/>
<path d="M87.627 4.50699C88.6829 2.61366 89.2104 1.66699 89.9995 1.66699C90.7887 1.66699 91.3162 2.61366 92.372 4.50699L92.6454 4.99699C92.9454 5.53533 93.0954 5.80449 93.3287 5.98199C93.562 6.15949 93.8537 6.22533 94.437 6.35699L94.967 6.47699C97.017 6.94116 98.0412 7.17283 98.2854 7.95699C98.5287 8.74033 97.8304 9.55783 96.4329 11.192L96.0712 11.6145C95.6745 12.0787 95.4754 12.3112 95.3862 12.5978C95.297 12.8853 95.327 13.1953 95.387 13.8145L95.442 14.3787C95.6529 16.5595 95.7587 17.6495 95.1204 18.1337C94.482 18.6187 93.522 18.1762 91.6037 17.2928L91.1062 17.0645C90.5612 16.8128 90.2887 16.6878 89.9995 16.6878C89.7104 16.6878 89.4379 16.8128 88.8929 17.0645L88.3962 17.2928C86.477 18.1762 85.517 18.6178 84.8795 18.1345C84.2404 17.6495 84.3462 16.5595 84.557 14.3787L84.612 13.8153C84.672 13.1953 84.702 12.8853 84.612 12.5987C84.5237 12.3112 84.3245 12.0787 83.9279 11.6153L83.5662 11.192C82.1687 9.55866 81.4704 8.74116 81.7137 7.95699C81.9579 7.17283 82.9829 6.94033 85.0329 6.47699L85.5629 6.35699C86.1454 6.22533 86.4362 6.15949 86.6704 5.98199C86.9037 5.80449 87.0537 5.53533 87.3537 4.99699L87.627 4.50699Z" fill="#EEEEEE"/>
</svg>
