<svg width="150" height="150" viewBox="0 0 150 150" fill="none" xmlns="http://www.w3.org/2000/svg">
<g clip-path="url(#clip0_424_4589)">
<path d="M70.8333 150C109.954 150 141.667 118.287 141.667 79.1666C141.667 40.0464 109.954 8.33325 70.8333 8.33325C31.7132 8.33325 0 40.0464 0 79.1666C0 118.287 31.7132 150 70.8333 150Z" fill="#FFCC4D"/>
<path d="M74.9958 118.75C79.5982 118.75 83.3291 114.086 83.3291 108.333C83.3291 102.58 79.5982 97.9167 74.9958 97.9167C70.3934 97.9167 66.6625 102.58 66.6625 108.333C66.6625 114.086 70.3934 118.75 74.9958 118.75Z" fill="#664500"/>
<path d="M33.7958 89.0957C33.0512 89.0949 32.3204 88.8946 31.6794 88.5155C31.0385 88.1365 30.5109 87.5926 30.1514 86.9405C29.792 86.2883 29.6138 85.5518 29.6356 84.8075C29.6573 84.0632 29.8781 83.3383 30.275 82.7082C34.0916 76.6541 45.6958 66.2999 62.3166 70.3666C63.3679 70.6497 64.2666 71.333 64.8204 72.2703C65.3742 73.2076 65.5392 74.3244 65.28 75.3818C65.0208 76.4392 64.3581 77.3532 63.4336 77.9281C62.5091 78.5031 61.3963 78.6934 60.3333 78.4582C45.3166 74.7832 37.4083 87.0249 37.3291 87.1499C36.9528 87.7466 36.4313 88.2381 35.8133 88.5784C35.1954 88.9187 34.5013 89.0967 33.7958 89.0957ZM83.6833 73.5041C82.8235 73.5048 81.9845 73.2395 81.2815 72.7445C80.5784 72.2496 80.0456 71.5493 79.7563 70.7397C79.4669 69.93 79.4351 69.0507 79.6653 68.2222C79.8954 67.3938 80.3762 66.6568 81.0416 66.1124C94.275 55.2624 109.217 59.6041 115.271 63.4207C115.734 63.7118 116.136 64.0914 116.453 64.5377C116.769 64.984 116.995 65.4883 117.117 66.0218C117.239 66.5554 117.255 67.1077 117.163 67.6473C117.071 68.1869 116.874 68.7031 116.583 69.1666C116.292 69.63 115.913 70.0316 115.466 70.3484C115.02 70.6652 114.516 70.891 113.982 71.0128C113.449 71.1347 112.896 71.1503 112.357 71.0587C111.817 70.9671 111.301 70.7702 110.837 70.4791C110.262 70.1291 98.1208 62.8832 86.3208 72.5582C85.5786 73.171 84.6458 73.5055 83.6833 73.5041Z" fill="#664500"/>
<path d="M55.6084 130.304C55.1253 130.304 54.6488 130.192 54.2162 129.977C53.7837 129.762 53.4069 129.45 53.1154 129.065C52.8239 128.68 52.6256 128.232 52.5362 127.758C52.4468 127.283 52.4686 126.794 52.6 126.329C54.4208 119.912 53.675 113.708 50.5584 109.304C48.4875 106.379 45.5375 104.592 42.4625 104.396C40.7375 104.292 39.4292 102.804 39.5375 101.083C39.6459 99.3624 41.125 97.9541 42.85 98.1624C47.8209 98.4708 52.4875 101.217 55.6542 105.692C59.8667 111.646 60.9459 119.787 58.6084 128.029C58.4242 128.683 58.0315 129.259 57.4901 129.67C56.9486 130.081 56.2879 130.303 55.6084 130.304ZM101.596 117.55C100.985 117.551 100.388 117.371 99.8792 117.033C95.0167 113.825 92.2959 108.212 92.4125 101.637C92.5334 94.8249 95.7834 88.4999 100.679 85.5166C101.029 85.3026 101.418 85.1598 101.824 85.0966C102.229 85.0333 102.644 85.0508 103.042 85.1479C103.441 85.2451 103.817 85.4201 104.148 85.6628C104.479 85.9056 104.758 86.2113 104.971 86.5624C105.185 86.9127 105.328 87.3017 105.391 87.7072C105.454 88.1127 105.437 88.5268 105.34 88.9255C105.242 89.3243 105.067 89.6999 104.825 90.0309C104.582 90.3619 104.276 90.6416 103.925 90.8541C100.863 92.7208 98.7417 97.0999 98.6583 101.746C98.575 106.142 100.279 109.812 103.317 111.817C103.878 112.187 104.304 112.728 104.533 113.359C104.762 113.991 104.782 114.68 104.589 115.323C104.395 115.967 104 116.531 103.461 116.932C102.922 117.333 102.268 117.55 101.596 117.55Z" fill="#E2A62D"/>
<path d="M71.5792 11.3332C71.3658 11.1233 71.0889 10.9899 70.7917 10.9541C70.7917 10.9541 4.44169 -1.64176 1.57086 0.891576C-1.29581 3.42908 3.08336 70.8249 3.08336 70.8249C3.10419 71.1624 3.17919 71.4499 3.36252 71.6541C5.87919 74.5041 23.1875 63.3041 42.025 46.6499C60.8667 29.9916 74.0959 14.1832 71.5792 11.3332Z" fill="#DD2E44"/>
<path d="M1.45417 1.12912C1.3789 1.29218 1.32566 1.46452 1.29584 1.64162C1.95834 7.35412 8.35834 54.3583 12.3458 69.05C18.3292 65.7041 24.4083 61.1583 31.55 55.4958C25.4833 44.3916 4.825 0.608286 1.45417 1.12912Z" fill="#EA596E"/>
<path d="M124.592 121.788L80.5375 116.358C75.8291 115.933 67.55 115.892 67.975 108.433C68.3625 101.671 76.475 102.713 82.4708 103.6L126.796 110.992L124.592 121.788Z" fill="#3B88C3"/>
<path d="M126.792 110.996L109.2 107.979C107.142 107.608 105.308 110.675 105.217 113.921C105.112 117.529 106.162 119.354 108.242 119.779L125.508 121.913L126.792 110.996Z" fill="#88C9F9"/>
<path d="M145.492 109.754L134.567 119.8L115.037 98.5624L125.962 88.5166C128.702 86.0114 132.322 84.6924 136.031 84.8478C139.741 85.0031 143.238 86.6202 145.758 89.3458L146.321 89.9582C148.825 92.6985 150.143 96.3182 149.988 100.027C149.833 103.736 148.216 107.233 145.492 109.754Z" fill="#3B88C3"/>
<path d="M134.56 119.806C139.252 115.491 138.685 107.24 133.293 101.375C127.901 95.5106 119.726 94.2539 115.033 98.5683C110.341 102.883 110.908 111.134 116.3 116.999C121.693 122.863 129.868 124.12 134.56 119.806Z" fill="#88C9F9"/>
<path d="M130.654 115.558C133 113.401 132.28 108.8 129.045 105.281C125.81 101.763 121.285 100.659 118.939 102.816C116.593 104.974 117.314 109.575 120.549 113.093C123.783 116.611 128.308 117.715 130.654 115.558Z" fill="#226699"/>
<path d="M10.4167 145.833C13.8685 145.833 16.6667 143.035 16.6667 139.583C16.6667 136.131 13.8685 133.333 10.4167 133.333C6.96491 133.333 4.16669 136.131 4.16669 139.583C4.16669 143.035 6.96491 145.833 10.4167 145.833Z" fill="#55ACEE"/>
<path d="M120.833 16.6667C125.436 16.6667 129.167 12.9357 129.167 8.33333C129.167 3.73096 125.436 0 120.833 0C116.231 0 112.5 3.73096 112.5 8.33333C112.5 12.9357 116.231 16.6667 120.833 16.6667Z" fill="#55ACEE"/>
<path d="M20.2667 121.858L10.525 98.4583L1.71667 123.646L20.2667 121.858ZM108.333 20.8333L91.6667 24.9999L95.8333 8.33325L108.333 20.8333Z" fill="#EA596E"/>
<path d="M133.329 54.1667L150 33.3292L137.5 25L133.329 54.1667Z" fill="#77B255"/>
</g>
<defs>
<clipPath id="clip0_424_4589">
<rect width="150" height="150" fill="white"/>
</clipPath>
</defs>
</svg>
